# xmcd
#
# Track frame offsets: 
#        183
#        15560
#        35588
#        48743
#        61243
#        73283
#        85508
#        99793
#        114815
#        127478
#        147053
#        160210
#        179280
#        194118
#        207398
#        223110
#        238643
#        256858
#        270420
#        289858
#        305158
#        317758
#        326348
#        336445
#
# Disc length: 4664 seconds
#
# Revision: 2
# Processed by: cddbd v1.5.2PL0 Copyright (c) Steve Scherf et al.
# Submitted via: ExactAudioCopyFreeDBPlugin 1.0
#
DISCID=6e123618
DTITLE=Various Artist - Country Roads
DYEAR=1900
DGENRE=Country
TTITLE0=Billy Ray Cyrus - Achy Breaky Heart
TTITLE1=Patty Smith and Don Henley - Sometimes Love Just Ain't Enough
TTITLE2=Dolly Parton - I Will Always Love You
TTITLE3=Roy Orbison - Crying
TTITLE4=Glen Campbell - Galveston
TTITLE5=Nilsson - Everybody's Talkin'
TTITLE6=Dr Hook - If Not You
TTITLE7=Jimmy Buffet - Margaritaville
TTITLE8=Ray Stevens - Misty
TTITLE9=Steve Earle - Copperhead Road
TTITLE10=Eddie Rabbitt - I Love A Rainy Night
TTITLE11=Marc Cohn - Walking In Memphis
TTITLE12=Olivia Newton-John - Take Me Home Country Roads
TTITLE13=Crystal Gayle - Why Have You Left The One You Left Me For
TTITLE14=Rickie Lee Jones - Chuck E's In Love
TTITLE15=America - Ventura Highway
TTITLE16=Johnny Cash - One Piece At A Time
TTITLE17=Jimmy Dean - Big Bad John
TTITLE18=Kenny Rogers - Coward Of The County
TTITLE19=Rita Coolidge - Words
TTITLE20=Jennifer Warnes - Right Time Of The Night
TTITLE21=Roger Miller - England Swings
TTITLE22=Conway Twitty - It's Only Make Believe
TTITLE23=Jim Stafford - Spiders And Snakes
EXTD=
EXTT0=
EXTT1=
EXTT2=
EXTT3=
EXTT4=
EXTT5=
EXTT6=
EXTT7=
EXTT8=
EXTT9=
EXTT10=
EXTT11=
EXTT12=
EXTT13=
EXTT14=
EXTT15=
EXTT16=
EXTT17=
EXTT18=
EXTT19=
EXTT20=
EXTT21=
EXTT22=
EXTT23=
PLAYORDER=
